# MagicaVoxel @ Ephtracy

# group
o 

# material
mtllib medkit(white).mtl
usemtl palette

# normals
vn -1 0 0
vn 1 0 0
vn 0 0 1
vn 0 0 -1
vn 0 -1 0
vn 0 1 0

# texcoords
vt 0.841797 0.5
vt 0.958984 0.5
vt 0.962891 0.5
vt 0.966797 0.5
vt 0.986328 0.5

# verts
v -1.6 0.6 0.4
v -1.6 0.6 0.1
v -1.6 2.6 0.4
v -1.6 2.6 0.1
v -1.5 0.5 0.4
v -1.5 0.5 0.1
v -1.5 0.6 0.7
v -1.5 0.6 0.4
v -1.5 0.6 0.1
v -1.5 0.6 -0.2
v -1.5 0.8 0.8
v -1.5 0.8 0.7
v -1.5 0.8 -0.2
v -1.5 0.8 -0.3
v -1.5 2.4 0.8
v -1.5 2.4 0.7
v -1.5 2.4 -0.2
v -1.5 2.4 -0.3
v -1.5 2.6 0.7
v -1.5 2.6 0.4
v -1.5 2.6 0.1
v -1.5 2.6 -0.2
v -1.5 2.7 0.4
v -1.5 2.7 0.1
v -1.4 0.7 0.8
v -1.4 0.7 0.7
v -1.4 0.7 -0.2
v -1.4 0.7 -0.3
v -1.4 0.8 0.8
v -1.4 0.8 0.7
v -1.4 0.8 -0.2
v -1.4 0.8 -0.3
v -1.4 2.4 0.8
v -1.4 2.4 0.7
v -1.4 2.4 -0.2
v -1.4 2.4 -0.3
v -1.4 2.5 0.8
v -1.4 2.5 0.7
v -1.4 2.5 -0.2
v -1.4 2.5 -0.3
v -1.3 0.6 0.8
v -1.3 0.6 0.7
v -1.3 0.6 -0.2
v -1.3 0.6 -0.3
v -1.3 0.7 0.8
v -1.3 0.7 0.7
v -1.3 0.7 -0.2
v -1.3 0.7 -0.3
v -1.3 2.5 0.8
v -1.3 2.5 0.7
v -1.3 2.5 -0.2
v -1.3 2.5 -0.3
v -1.3 2.6 0.8
v -1.3 2.6 0.7
v -1.3 2.6 -0.2
v -1.3 2.6 -0.3
v -1.1 2.6 0.6
v -1.1 2.6 0.4
v -1.1 2.6 0.1
v -1.1 2.6 -0.1
v -1.1 2.7 0.4
v -1.1 2.7 0.1
v -1.1 2.8 0.6
v -1.1 2.8 -0.1
v -0.5 2.7 0.4
v -0.5 2.7 0.1
v -0.5 3 0.4
v -0.5 3 0.1
v -0.4 3 0.4
v -0.4 3 0.1
v -0.4 3.1 0.4
v -0.4 3.1 0.1
v -0.3 3.1 0.4
v -0.3 3.1 0.1
v -0.3 3.2 0.4
v -0.3 3.2 0.1
v 0.2 0.9 0.8
v 0.2 0.9 0.7
v 0.2 1.4 0.8
v 0.2 1.4 0.7
v 0.2 1.8 0.8
v 0.2 1.8 0.7
v 0.2 2.3 0.8
v 0.2 2.3 0.7
v 0.2 3 0.4
v 0.2 3 0.1
v 0.2 3.1 0.4
v 0.2 3.1 0.1
v 0.3 2.9 0.4
v 0.3 2.9 0.1
v 0.3 3 0.4
v 0.3 3 0.1
v 0.4 2.7 0.4
v 0.4 2.7 0.1
v 0.4 2.9 0.4
v 0.4 2.9 0.1
v 0.8 1.4 0.8
v 0.8 1.4 0.7
v 0.8 1.8 0.8
v 0.8 1.8 0.7
v 0.8 2.6 0.6
v 0.8 2.6 0.4
v 0.8 2.6 0.1
v 0.8 2.6 -0.1
v 0.8 2.7 0.4
v 0.8 2.7 0.1
v 0.8 2.8 0.6
v 0.8 2.8 -0.1
v -0.8 1.4 0.8
v -0.8 1.4 0.7
v -0.8 1.8 0.8
v -0.8 1.8 0.7
v -0.8 2.6 0.6
v -0.8 2.6 0.4
v -0.8 2.6 0.1
v -0.8 2.6 -0.1
v -0.8 2.7 0.4
v -0.8 2.7 0.1
v -0.8 2.8 0.6
v -0.8 2.8 -0.1
v -0.4 2.7 0.4
v -0.4 2.7 0.1
v -0.4 2.9 0.4
v -0.4 2.9 0.1
v -0.3 2.9 0.4
v -0.3 2.9 0.1
v -0.3 3 0.4
v -0.3 3 0.1
v -0.2 0.9 0.8
v -0.2 0.9 0.7
v -0.2 1.4 0.8
v -0.2 1.4 0.7
v -0.2 1.8 0.8
v -0.2 1.8 0.7
v -0.2 2.3 0.8
v -0.2 2.3 0.7
v -0.2 3 0.4
v -0.2 3 0.1
v -0.2 3.1 0.4
v -0.2 3.1 0.1
v 0.3 3.1 0.4
v 0.3 3.1 0.1
v 0.3 3.2 0.4
v 0.3 3.2 0.1
v 0.4 3 0.4
v 0.4 3 0.1
v 0.4 3.1 0.4
v 0.4 3.1 0.1
v 0.5 2.7 0.4
v 0.5 2.7 0.1
v 0.5 3 0.4
v 0.5 3 0.1
v 1.1 2.6 0.6
v 1.1 2.6 0.4
v 1.1 2.6 0.1
v 1.1 2.6 -0.1
v 1.1 2.7 0.4
v 1.1 2.7 0.1
v 1.1 2.8 0.6
v 1.1 2.8 -0.1
v 1.3 0.6 0.8
v 1.3 0.6 0.7
v 1.3 0.6 -0.2
v 1.3 0.6 -0.3
v 1.3 0.7 0.8
v 1.3 0.7 0.7
v 1.3 0.7 -0.2
v 1.3 0.7 -0.3
v 1.3 2.5 0.8
v 1.3 2.5 0.7
v 1.3 2.5 -0.2
v 1.3 2.5 -0.3
v 1.3 2.6 0.8
v 1.3 2.6 0.7
v 1.3 2.6 -0.2
v 1.3 2.6 -0.3
v 1.4 0.7 0.8
v 1.4 0.7 0.7
v 1.4 0.7 -0.2
v 1.4 0.7 -0.3
v 1.4 0.8 0.8
v 1.4 0.8 0.7
v 1.4 0.8 -0.2
v 1.4 0.8 -0.3
v 1.4 2.4 0.8
v 1.4 2.4 0.7
v 1.4 2.4 -0.2
v 1.4 2.4 -0.3
v 1.4 2.5 0.8
v 1.4 2.5 0.7
v 1.4 2.5 -0.2
v 1.4 2.5 -0.3
v 1.5 0.5 0.4
v 1.5 0.5 0.1
v 1.5 0.6 0.7
v 1.5 0.6 0.4
v 1.5 0.6 0.1
v 1.5 0.6 -0.2
v 1.5 0.8 0.8
v 1.5 0.8 0.7
v 1.5 0.8 -0.2
v 1.5 0.8 -0.3
v 1.5 2.4 0.8
v 1.5 2.4 0.7
v 1.5 2.4 -0.2
v 1.5 2.4 -0.3
v 1.5 2.6 0.7
v 1.5 2.6 0.4
v 1.5 2.6 0.1
v 1.5 2.6 -0.2
v 1.5 2.7 0.4
v 1.5 2.7 0.1
v 1.6 0.6 0.4
v 1.6 0.6 0.1
v 1.6 2.6 0.4
v 1.6 2.6 0.1
v -1.5 0.8 0.8
v -1.5 2.4 0.8
v -1.4 0.7 0.8
v -1.4 0.8 0.8
v -1.4 2.4 0.8
v -1.4 2.5 0.8
v -1.3 0.6 0.8
v -1.3 0.7 0.8
v -1.3 2.5 0.8
v -1.3 2.6 0.8
v -0.9 1.4 0.8
v -0.9 1.8 0.8
v -0.8 1.3 0.8
v -0.8 1.4 0.8
v -0.8 1.8 0.8
v -0.8 1.9 0.8
v -0.3 0.9 0.8
v -0.3 1.3 0.8
v -0.3 1.9 0.8
v -0.3 2.3 0.8
v -0.2 0.8 0.8
v -0.2 0.9 0.8
v -0.2 1.4 0.8
v -0.2 1.8 0.8
v -0.2 2.3 0.8
v -0.2 2.4 0.8
v 0.2 0.8 0.8
v 0.2 0.9 0.8
v 0.2 1.4 0.8
v 0.2 1.8 0.8
v 0.2 2.3 0.8
v 0.2 2.4 0.8
v 0.3 0.9 0.8
v 0.3 1.3 0.8
v 0.3 1.9 0.8
v 0.3 2.3 0.8
v 0.8 1.3 0.8
v 0.8 1.4 0.8
v 0.8 1.8 0.8
v 0.8 1.9 0.8
v 0.9 1.4 0.8
v 0.9 1.8 0.8
v 1.3 0.6 0.8
v 1.3 0.7 0.8
v 1.3 2.5 0.8
v 1.3 2.6 0.8
v 1.4 0.7 0.8
v 1.4 0.8 0.8
v 1.4 2.4 0.8
v 1.4 2.5 0.8
v 1.5 0.8 0.8
v 1.5 2.4 0.8
v -1.5 0.6 0.7
v -1.5 0.8 0.7
v -1.5 2.4 0.7
v -1.5 2.6 0.7
v -1.4 0.7 0.7
v -1.4 0.8 0.7
v -1.4 2.4 0.7
v -1.4 2.5 0.7
v -1.3 0.6 0.7
v -1.3 0.7 0.7
v -1.3 2.5 0.7
v -1.3 2.6 0.7
v -0.8 1.4 0.7
v -0.8 1.8 0.7
v -0.2 0.9 0.7
v -0.2 1.4 0.7
v -0.2 1.8 0.7
v -0.2 2.3 0.7
v 0.2 0.9 0.7
v 0.2 1.4 0.7
v 0.2 1.8 0.7
v 0.2 2.3 0.7
v 0.8 1.4 0.7
v 0.8 1.8 0.7
v 1.3 0.6 0.7
v 1.3 0.7 0.7
v 1.3 2.5 0.7
v 1.3 2.6 0.7
v 1.4 0.7 0.7
v 1.4 0.8 0.7
v 1.4 2.4 0.7
v 1.4 2.5 0.7
v 1.5 0.6 0.7
v 1.5 0.8 0.7
v 1.5 2.4 0.7
v 1.5 2.6 0.7
v -1.1 2.6 0.6
v -1.1 2.8 0.6
v -0.8 2.6 0.6
v -0.8 2.8 0.6
v 0.8 2.6 0.6
v 0.8 2.8 0.6
v 1.1 2.6 0.6
v 1.1 2.8 0.6
v -1.6 0.6 0.4
v -1.6 2.6 0.4
v -1.5 0.5 0.4
v -1.5 0.6 0.4
v -1.5 2.6 0.4
v -1.5 2.7 0.4
v -1.1 2.6 0.4
v -1.1 2.7 0.4
v -0.8 2.6 0.4
v -0.8 2.7 0.4
v -0.5 2.7 0.4
v -0.5 3 0.4
v -0.4 2.7 0.4
v -0.4 2.9 0.4
v -0.4 3 0.4
v -0.4 3.1 0.4
v -0.3 2.9 0.4
v -0.3 3 0.4
v -0.3 3.1 0.4
v -0.3 3.2 0.4
v -0.2 3 0.4
v -0.2 3.1 0.4
v 0.2 3 0.4
v 0.2 3.1 0.4
v 0.3 2.9 0.4
v 0.3 3 0.4
v 0.3 3.1 0.4
v 0.3 3.2 0.4
v 0.4 2.7 0.4
v 0.4 2.9 0.4
v 0.4 3 0.4
v 0.4 3.1 0.4
v 0.5 2.7 0.4
v 0.5 3 0.4
v 0.8 2.6 0.4
v 0.8 2.7 0.4
v 1.1 2.6 0.4
v 1.1 2.7 0.4
v 1.5 0.5 0.4
v 1.5 0.6 0.4
v 1.5 2.6 0.4
v 1.5 2.7 0.4
v 1.6 0.6 0.4
v 1.6 2.6 0.4
v -1.6 0.6 0.1
v -1.6 2.6 0.1
v -1.5 0.5 0.1
v -1.5 0.6 0.1
v -1.5 2.6 0.1
v -1.5 2.7 0.1
v -1.1 2.6 0.1
v -1.1 2.7 0.1
v -0.8 2.6 0.1
v -0.8 2.7 0.1
v -0.5 2.7 0.1
v -0.5 3 0.1
v -0.4 2.7 0.1
v -0.4 2.9 0.1
v -0.4 3 0.1
v -0.4 3.1 0.1
v -0.3 2.9 0.1
v -0.3 3 0.1
v -0.3 3.1 0.1
v -0.3 3.2 0.1
v -0.2 3 0.1
v -0.2 3.1 0.1
v 0.2 3 0.1
v 0.2 3.1 0.1
v 0.3 2.9 0.1
v 0.3 3 0.1
v 0.3 3.1 0.1
v 0.3 3.2 0.1
v 0.4 2.7 0.1
v 0.4 2.9 0.1
v 0.4 3 0.1
v 0.4 3.1 0.1
v 0.5 2.7 0.1
v 0.5 3 0.1
v 0.8 2.6 0.1
v 0.8 2.7 0.1
v 1.1 2.6 0.1
v 1.1 2.7 0.1
v 1.5 0.5 0.1
v 1.5 0.6 0.1
v 1.5 2.6 0.1
v 1.5 2.7 0.1
v 1.6 0.6 0.1
v 1.6 2.6 0.1
v -1.1 2.6 -0.1
v -1.1 2.8 -0.1
v -0.8 2.6 -0.1
v -0.8 2.8 -0.1
v 0.8 2.6 -0.1
v 0.8 2.8 -0.1
v 1.1 2.6 -0.1
v 1.1 2.8 -0.1
v -1.5 0.6 -0.2
v -1.5 0.8 -0.2
v -1.5 2.4 -0.2
v -1.5 2.6 -0.2
v -1.4 0.7 -0.2
v -1.4 0.8 -0.2
v -1.4 2.4 -0.2
v -1.4 2.5 -0.2
v -1.3 0.6 -0.2
v -1.3 0.7 -0.2
v -1.3 2.5 -0.2
v -1.3 2.6 -0.2
v 1.3 0.6 -0.2
v 1.3 0.7 -0.2
v 1.3 2.5 -0.2
v 1.3 2.6 -0.2
v 1.4 0.7 -0.2
v 1.4 0.8 -0.2
v 1.4 2.4 -0.2
v 1.4 2.5 -0.2
v 1.5 0.6 -0.2
v 1.5 0.8 -0.2
v 1.5 2.4 -0.2
v 1.5 2.6 -0.2
v -1.5 0.8 -0.3
v -1.5 2.4 -0.3
v -1.4 0.7 -0.3
v -1.4 0.8 -0.3
v -1.4 2.4 -0.3
v -1.4 2.5 -0.3
v -1.3 0.6 -0.3
v -1.3 0.7 -0.3
v -1.3 2.5 -0.3
v -1.3 2.6 -0.3
v 1.3 0.6 -0.3
v 1.3 0.7 -0.3
v 1.3 2.5 -0.3
v 1.3 2.6 -0.3
v 1.4 0.7 -0.3
v 1.4 0.8 -0.3
v 1.4 2.4 -0.3
v 1.4 2.5 -0.3
v 1.5 0.8 -0.3
v 1.5 2.4 -0.3
v -1.5 0.5 0.4
v 1.5 0.5 0.4
v -1.5 0.5 0.1
v 1.5 0.5 0.1
v -1.3 0.6 0.8
v 1.3 0.6 0.8
v -1.5 0.6 0.7
v -1.3 0.6 0.7
v 1.3 0.6 0.7
v 1.5 0.6 0.7
v -1.6 0.6 0.4
v -1.5 0.6 0.4
v 1.5 0.6 0.4
v 1.6 0.6 0.4
v -1.6 0.6 0.1
v -1.5 0.6 0.1
v 1.5 0.6 0.1
v 1.6 0.6 0.1
v -1.5 0.6 -0.2
v -1.3 0.6 -0.2
v 1.3 0.6 -0.2
v 1.5 0.6 -0.2
v -1.3 0.6 -0.3
v 1.3 0.6 -0.3
v -1.4 0.7 0.8
v -1.3 0.7 0.8
v 1.3 0.7 0.8
v 1.4 0.7 0.8
v -1.4 0.7 0.7
v -1.3 0.7 0.7
v 1.3 0.7 0.7
v 1.4 0.7 0.7
v -1.4 0.7 -0.2
v -1.3 0.7 -0.2
v 1.3 0.7 -0.2
v 1.4 0.7 -0.2
v -1.4 0.7 -0.3
v -1.3 0.7 -0.3
v 1.3 0.7 -0.3
v 1.4 0.7 -0.3
v -1.5 0.8 0.8
v -1.4 0.8 0.8
v 1.4 0.8 0.8
v 1.5 0.8 0.8
v -1.5 0.8 0.7
v -1.4 0.8 0.7
v 1.4 0.8 0.7
v 1.5 0.8 0.7
v -1.5 0.8 -0.2
v -1.4 0.8 -0.2
v 1.4 0.8 -0.2
v 1.5 0.8 -0.2
v -1.5 0.8 -0.3
v -1.4 0.8 -0.3
v 1.4 0.8 -0.3
v 1.5 0.8 -0.3
v -0.8 1.8 0.8
v -0.2 1.8 0.8
v 0.2 1.8 0.8
v 0.8 1.8 0.8
v -0.8 1.8 0.7
v -0.2 1.8 0.7
v 0.2 1.8 0.7
v 0.8 1.8 0.7
v -0.2 2.3 0.8
v 0.2 2.3 0.8
v -0.2 2.3 0.7
v 0.2 2.3 0.7
v -0.4 2.9 0.4
v -0.3 2.9 0.4
v 0.3 2.9 0.4
v 0.4 2.9 0.4
v -0.4 2.9 0.1
v -0.3 2.9 0.1
v 0.3 2.9 0.1
v 0.4 2.9 0.1
v -0.3 3 0.4
v -0.2 3 0.4
v 0.2 3 0.4
v 0.3 3 0.4
v -0.3 3 0.1
v -0.2 3 0.1
v 0.2 3 0.1
v 0.3 3 0.1
v -0.2 3.1 0.4
v 0.2 3.1 0.4
v -0.2 3.1 0.1
v 0.2 3.1 0.1
v -0.2 0.9 0.8
v 0.2 0.9 0.8
v -0.2 0.9 0.7
v 0.2 0.9 0.7
v -0.8 1.4 0.8
v -0.2 1.4 0.8
v 0.2 1.4 0.8
v 0.8 1.4 0.8
v -0.8 1.4 0.7
v -0.2 1.4 0.7
v 0.2 1.4 0.7
v 0.8 1.4 0.7
v -1.5 2.4 0.8
v -1.4 2.4 0.8
v 1.4 2.4 0.8
v 1.5 2.4 0.8
v -1.5 2.4 0.7
v -1.4 2.4 0.7
v 1.4 2.4 0.7
v 1.5 2.4 0.7
v -1.5 2.4 -0.2
v -1.4 2.4 -0.2
v 1.4 2.4 -0.2
v 1.5 2.4 -0.2
v -1.5 2.4 -0.3
v -1.4 2.4 -0.3
v 1.4 2.4 -0.3
v 1.5 2.4 -0.3
v -1.4 2.5 0.8
v -1.3 2.5 0.8
v 1.3 2.5 0.8
v 1.4 2.5 0.8
v -1.4 2.5 0.7
v -1.3 2.5 0.7
v 1.3 2.5 0.7
v 1.4 2.5 0.7
v -1.4 2.5 -0.2
v -1.3 2.5 -0.2
v 1.3 2.5 -0.2
v 1.4 2.5 -0.2
v -1.4 2.5 -0.3
v -1.3 2.5 -0.3
v 1.3 2.5 -0.3
v 1.4 2.5 -0.3
v -1.3 2.6 0.8
v 1.3 2.6 0.8
v -1.5 2.6 0.7
v -1.3 2.6 0.7
v 1.3 2.6 0.7
v 1.5 2.6 0.7
v -1.1 2.6 0.6
v -0.8 2.6 0.6
v 0.8 2.6 0.6
v 1.1 2.6 0.6
v -1.6 2.6 0.4
v -1.5 2.6 0.4
v -1.1 2.6 0.4
v -0.8 2.6 0.4
v 0.8 2.6 0.4
v 1.1 2.6 0.4
v 1.5 2.6 0.4
v 1.6 2.6 0.4
v -1.6 2.6 0.1
v -1.5 2.6 0.1
v -1.1 2.6 0.1
v -0.8 2.6 0.1
v 0.8 2.6 0.1
v 1.1 2.6 0.1
v 1.5 2.6 0.1
v 1.6 2.6 0.1
v -1.1 2.6 -0.1
v -0.8 2.6 -0.1
v 0.8 2.6 -0.1
v 1.1 2.6 -0.1
v -1.5 2.6 -0.2
v -1.3 2.6 -0.2
v 1.3 2.6 -0.2
v 1.5 2.6 -0.2
v -1.3 2.6 -0.3
v 1.3 2.6 -0.3
v -1.5 2.7 0.4
v -1.1 2.7 0.4
v -0.8 2.7 0.4
v -0.5 2.7 0.4
v -0.4 2.7 0.4
v 0.4 2.7 0.4
v 0.5 2.7 0.4
v 0.8 2.7 0.4
v 1.1 2.7 0.4
v 1.5 2.7 0.4
v -1.5 2.7 0.1
v -1.1 2.7 0.1
v -0.8 2.7 0.1
v -0.5 2.7 0.1
v -0.4 2.7 0.1
v 0.4 2.7 0.1
v 0.5 2.7 0.1
v 0.8 2.7 0.1
v 1.1 2.7 0.1
v 1.5 2.7 0.1
v -1.1 2.8 0.6
v -0.8 2.8 0.6
v 0.8 2.8 0.6
v 1.1 2.8 0.6
v -1.1 2.8 -0.1
v -0.8 2.8 -0.1
v 0.8 2.8 -0.1
v 1.1 2.8 -0.1
v -0.5 3 0.4
v -0.4 3 0.4
v 0.4 3 0.4
v 0.5 3 0.4
v -0.5 3 0.1
v -0.4 3 0.1
v 0.4 3 0.1
v 0.5 3 0.1
v -0.4 3.1 0.4
v -0.3 3.1 0.4
v 0.3 3.1 0.4
v 0.4 3.1 0.4
v -0.4 3.1 0.1
v -0.3 3.1 0.1
v 0.3 3.1 0.1
v 0.4 3.1 0.1
v -0.3 3.2 0.4
v 0.3 3.2 0.4
v -0.3 3.2 0.1
v 0.3 3.2 0.1

# faces
f 3/3/1 2/3/1 1/3/1
f 4/3/1 2/3/1 3/3/1
f 8/3/1 6/3/1 5/3/1
f 9/3/1 6/3/1 8/3/1
f 12/2/1 8/2/1 7/2/1
f 13/2/1 10/2/1 9/2/1
f 15/2/1 12/2/1 11/2/1
f 16/2/1 8/2/1 12/2/1
f 16/2/1 12/2/1 15/2/1
f 17/2/1 14/2/1 13/2/1
f 17/2/1 13/2/1 9/2/1
f 18/2/1 14/2/1 17/2/1
f 19/2/1 8/2/1 16/2/1
f 20/2/1 8/2/1 19/2/1
f 21/2/1 17/2/1 9/2/1
f 22/2/1 17/2/1 21/2/1
f 23/3/1 21/3/1 20/3/1
f 24/3/1 21/3/1 23/3/1
f 29/2/1 26/2/1 25/2/1
f 30/2/1 26/2/1 29/2/1
f 31/2/1 28/2/1 27/2/1
f 32/2/1 28/2/1 31/2/1
f 37/2/1 34/2/1 33/2/1
f 38/2/1 34/2/1 37/2/1
f 39/2/1 36/2/1 35/2/1
f 40/2/1 36/2/1 39/2/1
f 45/2/1 42/2/1 41/2/1
f 46/2/1 42/2/1 45/2/1
f 47/2/1 44/2/1 43/2/1
f 48/2/1 44/2/1 47/2/1
f 53/2/1 50/2/1 49/2/1
f 54/2/1 50/2/1 53/2/1
f 55/2/1 52/2/1 51/2/1
f 56/2/1 52/2/1 55/2/1
f 61/4/1 58/4/1 57/4/1
f 62/4/1 60/4/1 59/4/1
f 63/4/1 61/4/1 57/4/1
f 63/4/1 62/4/1 61/4/1
f 64/4/1 60/4/1 62/4/1
f 64/4/1 62/4/1 63/4/1
f 67/5/1 66/5/1 65/5/1
f 68/5/1 66/5/1 67/5/1
f 71/5/1 70/5/1 69/5/1
f 72/5/1 70/5/1 71/5/1
f 75/5/1 74/5/1 73/5/1
f 76/5/1 74/5/1 75/5/1
f 79/3/1 78/3/1 77/3/1
f 80/3/1 78/3/1 79/3/1
f 83/3/1 82/3/1 81/3/1
f 84/3/1 82/3/1 83/3/1
f 87/5/1 86/5/1 85/5/1
f 88/5/1 86/5/1 87/5/1
f 91/5/1 90/5/1 89/5/1
f 92/5/1 90/5/1 91/5/1
f 95/5/1 94/5/1 93/5/1
f 96/5/1 94/5/1 95/5/1
f 99/3/1 98/3/1 97/3/1
f 100/3/1 98/3/1 99/3/1
f 105/4/1 102/4/1 101/4/1
f 106/4/1 104/4/1 103/4/1
f 107/4/1 105/4/1 101/4/1
f 107/4/1 106/4/1 105/4/1
f 108/4/1 104/4/1 106/4/1
f 108/4/1 106/4/1 107/4/1
f 109/3/2 110/3/2 111/3/2
f 111/3/2 110/3/2 112/3/2
f 113/4/2 114/4/2 117/4/2
f 115/4/2 116/4/2 118/4/2
f 113/4/2 117/4/2 119/4/2
f 117/4/2 118/4/2 119/4/2
f 118/4/2 116/4/2 120/4/2
f 119/4/2 118/4/2 120/4/2
f 121/5/2 122/5/2 123/5/2
f 123/5/2 122/5/2 124/5/2
f 125/5/2 126/5/2 127/5/2
f 127/5/2 126/5/2 128/5/2
f 129/3/2 130/3/2 131/3/2
f 131/3/2 130/3/2 132/3/2
f 133/3/2 134/3/2 135/3/2
f 135/3/2 134/3/2 136/3/2
f 137/5/2 138/5/2 139/5/2
f 139/5/2 138/5/2 140/5/2
f 141/5/2 142/5/2 143/5/2
f 143/5/2 142/5/2 144/5/2
f 145/5/2 146/5/2 147/5/2
f 147/5/2 146/5/2 148/5/2
f 149/5/2 150/5/2 151/5/2
f 151/5/2 150/5/2 152/5/2
f 153/4/2 154/4/2 157/4/2
f 155/4/2 156/4/2 158/4/2
f 153/4/2 157/4/2 159/4/2
f 157/4/2 158/4/2 159/4/2
f 158/4/2 156/4/2 160/4/2
f 159/4/2 158/4/2 160/4/2
f 161/2/2 162/2/2 165/2/2
f 165/2/2 162/2/2 166/2/2
f 163/2/2 164/2/2 167/2/2
f 167/2/2 164/2/2 168/2/2
f 169/2/2 170/2/2 173/2/2
f 173/2/2 170/2/2 174/2/2
f 171/2/2 172/2/2 175/2/2
f 175/2/2 172/2/2 176/2/2
f 177/2/2 178/2/2 181/2/2
f 181/2/2 178/2/2 182/2/2
f 179/2/2 180/2/2 183/2/2
f 183/2/2 180/2/2 184/2/2
f 185/2/2 186/2/2 189/2/2
f 189/2/2 186/2/2 190/2/2
f 187/2/2 188/2/2 191/2/2
f 191/2/2 188/2/2 192/2/2
f 193/3/2 194/3/2 196/3/2
f 196/3/2 194/3/2 197/3/2
f 195/2/2 196/2/2 200/2/2
f 197/2/2 198/2/2 201/2/2
f 199/2/2 200/2/2 203/2/2
f 200/2/2 196/2/2 204/2/2
f 203/2/2 200/2/2 204/2/2
f 201/2/2 202/2/2 205/2/2
f 197/2/2 201/2/2 205/2/2
f 205/2/2 202/2/2 206/2/2
f 204/2/2 196/2/2 207/2/2
f 207/2/2 196/2/2 208/2/2
f 197/2/2 205/2/2 209/2/2
f 209/2/2 205/2/2 210/2/2
f 208/3/2 209/3/2 211/3/2
f 211/3/2 209/3/2 212/3/2
f 213/3/2 214/3/2 215/3/2
f 215/3/2 214/3/2 216/3/2
f 220/2/3 218/2/3 217/2/3
f 221/2/3 218/2/3 220/2/3
f 224/2/3 220/2/3 219/2/3
f 224/2/3 222/2/3 221/2/3
f 224/2/3 221/2/3 220/2/3
f 225/2/3 222/2/3 224/2/3
f 227/2/3 224/2/3 223/2/3
f 227/2/3 226/2/3 225/2/3
f 227/2/3 225/2/3 224/2/3
f 228/2/3 226/2/3 227/2/3
f 229/2/3 227/2/3 223/2/3
f 230/3/3 228/3/3 227/3/3
f 230/2/3 227/2/3 229/2/3
f 231/2/3 226/2/3 228/2/3
f 231/3/3 228/3/3 230/3/3
f 232/2/3 226/2/3 231/2/3
f 233/2/3 229/2/3 223/2/3
f 234/3/3 230/3/3 229/3/3
f 234/2/3 229/2/3 233/2/3
f 235/2/3 226/2/3 232/2/3
f 235/3/3 232/3/3 231/3/3
f 236/2/3 226/2/3 235/2/3
f 237/2/3 233/2/3 223/2/3
f 238/3/3 234/3/3 233/3/3
f 238/2/3 233/2/3 237/2/3
f 239/3/3 230/3/3 234/3/3
f 239/3/3 234/3/3 238/3/3
f 240/3/3 235/3/3 231/3/3
f 240/3/3 236/3/3 235/3/3
f 241/2/3 226/2/3 236/2/3
f 241/3/3 236/3/3 240/3/3
f 242/2/3 226/2/3 241/2/3
f 243/3/3 238/3/3 237/3/3
f 243/2/3 237/2/3 223/2/3
f 244/3/3 238/3/3 243/3/3
f 247/3/3 242/3/3 241/3/3
f 248/2/3 226/2/3 242/2/3
f 248/3/3 242/3/3 247/3/3
f 249/3/3 245/3/3 244/3/3
f 249/2/3 244/2/3 243/2/3
f 250/3/3 245/3/3 249/3/3
f 251/3/3 247/3/3 246/3/3
f 252/2/3 248/2/3 247/2/3
f 252/3/3 247/3/3 251/3/3
f 253/3/3 245/3/3 250/3/3
f 253/2/3 250/2/3 249/2/3
f 254/3/3 245/3/3 253/3/3
f 255/3/3 251/3/3 246/3/3
f 256/2/3 252/2/3 251/2/3
f 256/3/3 251/3/3 255/3/3
f 257/2/3 254/2/3 253/2/3
f 257/3/3 255/3/3 254/3/3
f 258/2/3 256/2/3 255/2/3
f 258/3/3 255/3/3 257/3/3
f 259/2/3 243/2/3 223/2/3
f 259/2/3 249/2/3 243/2/3
f 259/2/3 258/2/3 257/2/3
f 259/2/3 257/2/3 253/2/3
f 259/2/3 253/2/3 249/2/3
f 260/2/3 258/2/3 259/2/3
f 261/2/3 248/2/3 252/2/3
f 261/2/3 258/2/3 260/2/3
f 261/2/3 226/2/3 248/2/3
f 261/2/3 256/2/3 258/2/3
f 261/2/3 252/2/3 256/2/3
f 262/2/3 226/2/3 261/2/3
f 263/2/3 261/2/3 260/2/3
f 264/2/3 261/2/3 263/2/3
f 265/2/3 261/2/3 264/2/3
f 266/2/3 261/2/3 265/2/3
f 267/2/3 265/2/3 264/2/3
f 268/2/3 265/2/3 267/2/3
f 273/2/3 270/2/3 269/2/3
f 274/2/3 270/2/3 273/2/3
f 275/2/3 272/2/3 271/2/3
f 276/2/3 272/2/3 275/2/3
f 277/2/3 273/2/3 269/2/3
f 278/2/3 273/2/3 277/2/3
f 279/2/3 272/2/3 276/2/3
f 280/2/3 272/2/3 279/2/3
f 284/1/3 282/1/3 281/1/3
f 285/1/3 282/1/3 284/1/3
f 287/1/3 284/1/3 283/1/3
f 287/1/3 286/1/3 285/1/3
f 287/1/3 285/1/3 284/1/3
f 288/1/3 286/1/3 287/1/3
f 289/1/3 286/1/3 288/1/3
f 290/1/3 286/1/3 289/1/3
f 291/1/3 289/1/3 288/1/3
f 292/1/3 289/1/3 291/1/3
f 297/2/3 294/2/3 293/2/3
f 300/2/3 296/2/3 295/2/3
f 301/2/3 298/2/3 297/2/3
f 301/2/3 297/2/3 293/2/3
f 302/2/3 298/2/3 301/2/3
f 303/2/3 300/2/3 299/2/3
f 304/2/3 296/2/3 300/2/3
f 304/2/3 300/2/3 303/2/3
f 307/4/3 306/4/3 305/4/3
f 308/4/3 306/4/3 307/4/3
f 311/4/3 310/4/3 309/4/3
f 312/4/3 310/4/3 311/4/3
f 316/3/3 314/3/3 313/3/3
f 317/3/3 314/3/3 316/3/3
f 319/3/3 318/3/3 317/3/3
f 320/3/3 318/3/3 319/3/3
f 323/3/3 322/3/3 321/3/3
f 325/3/3 323/3/3 321/3/3
f 325/5/3 324/5/3 323/5/3
f 326/5/3 324/5/3 325/5/3
f 327/5/3 324/5/3 326/5/3
f 329/5/3 328/5/3 327/5/3
f 329/5/3 327/5/3 326/5/3
f 330/5/3 328/5/3 329/5/3
f 331/5/3 328/5/3 330/5/3
f 333/5/3 332/5/3 331/5/3
f 333/5/3 331/5/3 330/5/3
f 334/5/3 332/5/3 333/5/3
f 336/5/3 332/5/3 334/5/3
f 338/5/3 336/5/3 335/5/3
f 339/5/3 332/5/3 336/5/3
f 339/5/3 336/5/3 338/5/3
f 340/5/3 332/5/3 339/5/3
f 341/3/3 325/3/3 321/3/3
f 342/5/3 338/5/3 337/5/3
f 342/5/3 339/5/3 338/5/3
f 343/5/3 339/5/3 342/5/3
f 344/5/3 339/5/3 343/5/3
f 345/3/3 341/3/3 321/3/3
f 345/5/3 342/5/3 341/5/3
f 345/5/3 343/5/3 342/5/3
f 346/5/3 343/5/3 345/5/3
f 347/3/3 345/3/3 321/3/3
f 348/3/3 345/3/3 347/3/3
f 351/3/3 316/3/3 315/3/3
f 352/3/3 316/3/3 351/3/3
f 353/3/3 350/3/3 349/3/3
f 354/3/3 350/3/3 353/3/3
f 355/3/3 353/3/3 352/3/3
f 356/3/3 353/3/3 355/3/3
f 357/3/4 358/3/4 360/3/4
f 360/3/4 358/3/4 361/3/4
f 361/3/4 362/3/4 363/3/4
f 363/3/4 362/3/4 364/3/4
f 365/3/4 366/3/4 367/3/4
f 365/3/4 367/3/4 369/3/4
f 367/5/4 368/5/4 369/5/4
f 369/5/4 368/5/4 370/5/4
f 370/5/4 368/5/4 371/5/4
f 371/5/4 372/5/4 373/5/4
f 370/5/4 371/5/4 373/5/4
f 373/5/4 372/5/4 374/5/4
f 374/5/4 372/5/4 375/5/4
f 375/5/4 376/5/4 377/5/4
f 374/5/4 375/5/4 377/5/4
f 377/5/4 376/5/4 378/5/4
f 378/5/4 376/5/4 380/5/4
f 379/5/4 380/5/4 382/5/4
f 380/5/4 376/5/4 383/5/4
f 382/5/4 380/5/4 383/5/4
f 383/5/4 376/5/4 384/5/4
f 365/3/4 369/3/4 385/3/4
f 381/5/4 382/5/4 386/5/4
f 382/5/4 383/5/4 386/5/4
f 386/5/4 383/5/4 387/5/4
f 387/5/4 383/5/4 388/5/4
f 365/3/4 385/3/4 389/3/4
f 385/5/4 386/5/4 389/5/4
f 386/5/4 387/5/4 389/5/4
f 389/5/4 387/5/4 390/5/4
f 365/3/4 389/3/4 391/3/4
f 391/3/4 389/3/4 392/3/4
f 359/3/4 360/3/4 395/3/4
f 395/3/4 360/3/4 396/3/4
f 393/3/4 394/3/4 397/3/4
f 397/3/4 394/3/4 398/3/4
f 396/3/4 397/3/4 399/3/4
f 399/3/4 397/3/4 400/3/4
f 401/4/4 402/4/4 403/4/4
f 403/4/4 402/4/4 404/4/4
f 405/4/4 406/4/4 407/4/4
f 407/4/4 406/4/4 408/4/4
f 409/2/4 410/2/4 413/2/4
f 413/2/4 410/2/4 414/2/4
f 411/2/4 412/2/4 415/2/4
f 415/2/4 412/2/4 416/2/4
f 409/2/4 413/2/4 417/2/4
f 417/2/4 413/2/4 418/2/4
f 416/2/4 412/2/4 419/2/4
f 419/2/4 412/2/4 420/2/4
f 421/2/4 422/2/4 425/2/4
f 423/2/4 424/2/4 428/2/4
f 425/2/4 426/2/4 429/2/4
f 421/2/4 425/2/4 429/2/4
f 429/2/4 426/2/4 430/2/4
f 427/2/4 428/2/4 431/2/4
f 428/2/4 424/2/4 432/2/4
f 431/2/4 428/2/4 432/2/4
f 433/2/4 434/2/4 436/2/4
f 436/2/4 434/2/4 437/2/4
f 435/2/4 436/2/4 440/2/4
f 437/2/4 438/2/4 440/2/4
f 436/2/4 437/2/4 440/2/4
f 440/2/4 438/2/4 441/2/4
f 439/2/4 440/2/4 443/2/4
f 441/2/4 442/2/4 443/2/4
f 440/2/4 441/2/4 443/2/4
f 443/2/4 442/2/4 444/2/4
f 444/2/4 442/2/4 445/2/4
f 445/2/4 442/2/4 446/2/4
f 444/2/4 445/2/4 447/2/4
f 447/2/4 445/2/4 448/2/4
f 448/2/4 445/2/4 449/2/4
f 449/2/4 445/2/4 450/2/4
f 448/2/4 449/2/4 451/2/4
f 451/2/4 449/2/4 452/2/4
f 455/3/5 454/3/5 453/3/5
f 456/3/5 454/3/5 455/3/5
f 460/2/5 458/2/5 457/2/5
f 461/2/5 458/2/5 460/2/5
f 464/2/5 460/2/5 459/2/5
f 464/2/5 462/2/5 461/2/5
f 464/2/5 461/2/5 460/2/5
f 465/2/5 462/2/5 464/2/5
f 467/3/5 464/3/5 463/3/5
f 468/3/5 464/3/5 467/3/5
f 469/3/5 466/3/5 465/3/5
f 470/3/5 466/3/5 469/3/5
f 471/2/5 469/2/5 468/2/5
f 472/2/5 469/2/5 471/2/5
f 473/2/5 469/2/5 472/2/5
f 474/2/5 469/2/5 473/2/5
f 475/2/5 473/2/5 472/2/5
f 476/2/5 473/2/5 475/2/5
f 481/2/5 478/2/5 477/2/5
f 482/2/5 478/2/5 481/2/5
f 483/2/5 480/2/5 479/2/5
f 484/2/5 480/2/5 483/2/5
f 489/2/5 486/2/5 485/2/5
f 490/2/5 486/2/5 489/2/5
f 491/2/5 488/2/5 487/2/5
f 492/2/5 488/2/5 491/2/5
f 497/2/5 494/2/5 493/2/5
f 498/2/5 494/2/5 497/2/5
f 499/2/5 496/2/5 495/2/5
f 500/2/5 496/2/5 499/2/5
f 505/2/5 502/2/5 501/2/5
f 506/2/5 502/2/5 505/2/5
f 507/2/5 504/2/5 503/2/5
f 508/2/5 504/2/5 507/2/5
f 513/3/5 510/3/5 509/3/5
f 514/3/5 510/3/5 513/3/5
f 515/3/5 512/3/5 511/3/5
f 516/3/5 512/3/5 515/3/5
f 519/3/5 518/3/5 517/3/5
f 520/3/5 518/3/5 519/3/5
f 525/5/5 522/5/5 521/5/5
f 526/5/5 522/5/5 525/5/5
f 527/5/5 524/5/5 523/5/5
f 528/5/5 524/5/5 527/5/5
f 533/5/5 530/5/5 529/5/5
f 534/5/5 530/5/5 533/5/5
f 535/5/5 532/5/5 531/5/5
f 536/5/5 532/5/5 535/5/5
f 539/5/5 538/5/5 537/5/5
f 540/5/5 538/5/5 539/5/5
f 541/3/6 542/3/6 543/3/6
f 543/3/6 542/3/6 544/3/6
f 545/3/6 546/3/6 549/3/6
f 549/3/6 546/3/6 550/3/6
f 547/3/6 548/3/6 551/3/6
f 551/3/6 548/3/6 552/3/6
f 553/2/6 554/2/6 557/2/6
f 557/2/6 554/2/6 558/2/6
f 555/2/6 556/2/6 559/2/6
f 559/2/6 556/2/6 560/2/6
f 561/2/6 562/2/6 565/2/6
f 565/2/6 562/2/6 566/2/6
f 563/2/6 564/2/6 567/2/6
f 567/2/6 564/2/6 568/2/6
f 569/2/6 570/2/6 573/2/6
f 573/2/6 570/2/6 574/2/6
f 571/2/6 572/2/6 575/2/6
f 575/2/6 572/2/6 576/2/6
f 577/2/6 578/2/6 581/2/6
f 581/2/6 578/2/6 582/2/6
f 579/2/6 580/2/6 583/2/6
f 583/2/6 580/2/6 584/2/6
f 585/2/6 586/2/6 588/2/6
f 588/2/6 586/2/6 589/2/6
f 587/2/6 588/2/6 591/2/6
f 589/2/6 590/2/6 591/2/6
f 588/2/6 589/2/6 591/2/6
f 591/2/6 590/2/6 592/2/6
f 592/2/6 590/2/6 593/2/6
f 593/2/6 590/2/6 594/2/6
f 587/2/6 591/2/6 596/2/6
f 596/2/6 591/2/6 597/2/6
f 592/2/6 593/2/6 598/2/6
f 598/2/6 593/2/6 599/2/6
f 594/2/6 590/2/6 600/2/6
f 600/2/6 590/2/6 601/2/6
f 595/3/6 596/3/6 603/3/6
f 603/3/6 596/3/6 604/3/6
f 601/3/6 602/3/6 609/3/6
f 609/3/6 602/3/6 610/3/6
f 604/2/6 605/2/6 611/2/6
f 606/2/6 607/2/6 612/2/6
f 612/2/6 607/2/6 613/2/6
f 608/2/6 609/2/6 614/2/6
f 604/2/6 611/2/6 615/2/6
f 613/2/6 614/2/6 615/2/6
f 612/2/6 613/2/6 615/2/6
f 611/2/6 612/2/6 615/2/6
f 615/2/6 614/2/6 616/2/6
f 614/2/6 609/2/6 617/2/6
f 616/2/6 614/2/6 617/2/6
f 617/2/6 609/2/6 618/2/6
f 616/2/6 617/2/6 619/2/6
f 619/2/6 617/2/6 620/2/6
f 621/3/6 622/3/6 631/3/6
f 631/3/6 622/3/6 632/3/6
f 623/3/6 624/3/6 633/3/6
f 633/3/6 624/3/6 634/3/6
f 625/3/6 626/3/6 635/3/6
f 635/3/6 626/3/6 636/3/6
f 627/3/6 628/3/6 637/3/6
f 637/3/6 628/3/6 638/3/6
f 629/3/6 630/3/6 639/3/6
f 639/3/6 630/3/6 640/3/6
f 641/4/6 642/4/6 645/4/6
f 645/4/6 642/4/6 646/4/6
f 643/4/6 644/4/6 647/4/6
f 647/4/6 644/4/6 648/4/6
f 649/5/6 650/5/6 653/5/6
f 653/5/6 650/5/6 654/5/6
f 651/5/6 652/5/6 655/5/6
f 655/5/6 652/5/6 656/5/6
f 657/5/6 658/5/6 661/5/6
f 661/5/6 658/5/6 662/5/6
f 659/5/6 660/5/6 663/5/6
f 663/5/6 660/5/6 664/5/6
f 665/5/6 666/5/6 667/5/6
f 667/5/6 666/5/6 668/5/6
